<svg width="16" height="8" viewBox="0 0 16 8" fill="none" xmlns="http://www.w3.org/2000/svg">
<path d="M11.8048 1.13807C12.0651 0.877722 12.0651 0.455612 11.8048 0.195262C11.5444 -0.0650874 11.1223 -0.0650874 10.8619 0.195262L4.66669 6.39052L1.80476 3.5286C1.54441 3.26825 1.1223 3.26825 0.861949 3.5286C0.6016 3.78894 0.6016 4.21106 0.861949 4.4714L4.19528 7.80474C4.45563 8.06509 4.87774 8.06509 5.13809 7.80474L11.8048 1.13807Z" fill="#E94057"/>
<path d="M15.1381 1.13807C15.3984 0.877722 15.3984 0.455612 15.1381 0.195262C14.8777 -0.0650874 14.4556 -0.0650874 14.1953 0.195262L7.99688 6.39367C7.73519 6.18623 7.35378 6.20343 7.11195 6.44526C6.8516 6.70561 6.8516 7.12772 7.11195 7.38807L7.52862 7.80474C7.78896 8.06509 8.21108 8.06509 8.47142 7.80474L15.1381 1.13807Z" fill="#E94057"/>
<path d="M5.55476 3.94526L5.13809 3.5286C4.87774 3.26825 4.45563 3.26825 4.19528 3.5286C3.93493 3.78894 3.93493 4.21106 4.19528 4.4714L4.61195 4.88807C4.8723 5.14842 5.29441 5.14842 5.55476 4.88807C5.81511 4.62772 5.81511 4.20561 5.55476 3.94526Z" fill="#E94057"/>
</svg>
