<svg width="53" height="47" viewBox="0 0 53 47" fill="none" xmlns="http://www.w3.org/2000/svg">
<g filter="url(#filter0_d_1057_540)">
<path d="M16.9375 1.5C10.4827 1.5 5.25 6.73271 5.25 13.1875C5.25 24.875 19.0625 35.5 26.5 37.9716C33.9375 35.5 47.75 24.875 47.75 13.1875C47.75 6.73271 42.5173 1.5 36.0625 1.5C32.1097 1.5 28.6151 3.46233 26.5 6.46591C24.3849 3.46233 20.8903 1.5 16.9375 1.5Z" fill="white"/>
<path d="M16.9375 1.5C10.4827 1.5 5.25 6.73271 5.25 13.1875C5.25 24.875 19.0625 35.5 26.5 37.9716C33.9375 35.5 47.75 24.875 47.75 13.1875C47.75 6.73271 42.5173 1.5 36.0625 1.5C32.1097 1.5 28.6151 3.46233 26.5 6.46591C24.3849 3.46233 20.8903 1.5 16.9375 1.5Z" stroke="white" stroke-width="2" stroke-linecap="round" stroke-linejoin="round"/>
</g>
<defs>
<filter id="filter0_d_1057_540" x="0.25" y="0.5" width="52.5" height="46.4717" filterUnits="userSpaceOnUse" color-interpolation-filters="sRGB">
<feFlood flood-opacity="0" result="BackgroundImageFix"/>
<feColorMatrix in="SourceAlpha" type="matrix" values="0 0 0 0 0 0 0 0 0 0 0 0 0 0 0 0 0 0 127 0" result="hardAlpha"/>
<feOffset dy="4"/>
<feGaussianBlur stdDeviation="2"/>
<feComposite in2="hardAlpha" operator="out"/>
<feColorMatrix type="matrix" values="0 0 0 0 0 0 0 0 0 0 0 0 0 0 0 0 0 0 0.25 0"/>
<feBlend mode="normal" in2="BackgroundImageFix" result="effect1_dropShadow_1057_540"/>
<feBlend mode="normal" in="SourceGraphic" in2="effect1_dropShadow_1057_540" result="shape"/>
</filter>
</defs>
</svg>
